<svg version="1.0" preserveAspectRatio="xMidYMid meet" viewBox="69.79026845637584 210.39600177999998 555.9563758389262 159.57000135" zoomAndPan="magnify" xmlns:xlink="http://www.w3.org/1999/xlink" xmlns="http://www.w3.org/2000/svg" style="max-height: 500px" width="555.9563758389262" height="159.57000135"><defs><g/><clipPath id="af6d3628e8"><path clip-rule="nonzero" d="M 0.59375 0 L 704.402344 0 L 704.402344 590 L 0.59375 590 Z M 0.59375 0"/></clipPath><clipPath id="15674b9b37"><path clip-rule="nonzero" d="M 117.898438 269 L 143 269 L 143 278 L 117.898438 278 Z M 117.898438 269"/></clipPath><clipPath id="e538aafaf7"><path clip-rule="nonzero" d="M 145 247.71875 L 260 247.71875 L 260 342.039062 L 145 342.039062 Z M 145 247.71875"/></clipPath></defs><g clip-path="url(#af6d3628e8)"><path fill-rule="nonzero" fill-opacity="1" d="M 0.59375 0 L 704.40625 0 L 704.40625 590 L 0.59375 590 Z M 0.59375 0" fill="#ffffff"/><path fill-rule="nonzero" fill-opacity="1" d="M 0.59375 0 L 704.40625 0 L 704.40625 590 L 0.59375 590 Z M 0.59375 0" fill="#ffffff"/></g><g clip-path="url(#15674b9b37)"><path fill-rule="nonzero" fill-opacity="1" d="M 142.4375 273.636719 C 142.4375 271.46875 140.675781 269.710938 138.507812 269.710938 L 121.875 269.710938 C 119.707031 269.710938 117.945312 271.46875 117.945312 273.636719 C 117.945312 275.804688 119.707031 277.5625 121.875 277.5625 L 138.507812 277.5625 C 140.675781 277.5625 142.4375 275.804688 142.4375 273.636719" fill="#ed1f30"/></g><path fill-rule="nonzero" fill-opacity="1" d="M 157.132812 285.191406 C 157.132812 283.023438 155.375 281.265625 153.203125 281.265625 L 135.800781 281.265625 C 133.628906 281.265625 131.871094 283.023438 131.871094 285.191406 C 131.871094 287.359375 133.628906 289.117188 135.800781 289.117188 L 153.203125 289.117188 C 155.375 289.117188 157.132812 287.359375 157.132812 285.191406" fill="#ed1f30"/><g clip-path="url(#e538aafaf7)"><path fill-rule="nonzero" fill-opacity="1" d="M 250.128906 270.273438 L 238.230469 299.574219 L 192.363281 299.574219 L 181.265625 270.273438 Z M 193.011719 334.1875 C 190.582031 334.1875 188.609375 332.210938 188.609375 329.789062 C 188.609375 327.363281 190.582031 325.390625 193.011719 325.390625 C 195.441406 325.390625 197.414062 327.363281 197.414062 329.789062 C 197.414062 332.210938 195.441406 334.1875 193.011719 334.1875 Z M 226.507812 334.1875 C 224.078125 334.1875 222.105469 332.210938 222.105469 329.789062 C 222.105469 327.363281 224.078125 325.390625 226.507812 325.390625 C 228.9375 325.390625 230.910156 327.363281 230.910156 329.789062 C 230.910156 332.210938 228.9375 334.1875 226.507812 334.1875 Z M 182.269531 312.226562 L 180.695312 316.523438 C 180.253906 317.726562 180.429688 319.070312 181.164062 320.121094 C 181.78125 321 182.726562 321.578125 183.777344 321.742188 C 181.894531 323.898438 180.75 326.710938 180.75 329.789062 C 180.75 336.542969 186.25 342.039062 193.011719 342.039062 C 199.773438 342.039062 205.277344 336.542969 205.277344 329.789062 C 205.277344 326.738281 204.148438 323.945312 202.296875 321.796875 L 217.226562 321.796875 C 215.371094 323.945312 214.246094 326.738281 214.246094 329.789062 C 214.246094 336.542969 219.746094 342.039062 226.507812 342.039062 C 233.269531 342.039062 238.773438 336.542969 238.773438 329.789062 C 238.773438 326.738281 237.644531 323.945312 235.792969 321.796875 L 238.773438 321.796875 C 240.941406 321.796875 242.703125 320.039062 242.703125 317.871094 C 242.703125 315.703125 240.941406 313.945312 238.773438 313.945312 L 190.007812 313.945312 L 192.398438 307.425781 L 240.875 307.425781 C 242.476562 307.425781 243.917969 306.457031 244.515625 304.972656 L 259.605469 267.824219 C 260.097656 266.613281 259.953125 265.238281 259.222656 264.15625 C 258.492188 263.070312 257.269531 262.421875 255.964844 262.421875 L 178.292969 262.421875 L 173.675781 250.238281 C 173.097656 248.710938 171.632812 247.699219 170 247.699219 L 156.242188 247.699219 C 154.074219 247.699219 152.3125 249.457031 152.3125 251.625 C 152.3125 253.792969 154.074219 255.550781 156.242188 255.550781 L 167.285156 255.550781 L 171.867188 267.652344 C 171.886719 267.710938 171.910156 267.765625 171.933594 267.824219 L 172.648438 269.710938 L 148.988281 269.710938 C 146.816406 269.710938 145.058594 271.46875 145.058594 273.636719 C 145.058594 275.808594 146.816406 277.566406 148.988281 277.566406 L 175.625 277.566406 L 177.027344 281.265625 L 163.984375 281.265625 C 161.816406 281.265625 160.054688 283.023438 160.054688 285.191406 C 160.054688 287.359375 161.816406 289.117188 163.984375 289.117188 L 180 289.117188 L 181.402344 292.820312 L 150.785156 292.820312 C 148.613281 292.820312 146.855469 294.578125 146.855469 296.746094 C 146.855469 298.914062 148.613281 300.671875 150.785156 300.671875 L 184.378906 300.671875 L 185.457031 303.519531 L 185.144531 304.375 L 171.453125 304.375 C 169.28125 304.375 167.523438 306.132812 167.523438 308.300781 C 167.523438 310.46875 169.28125 312.226562 171.453125 312.226562 L 182.269531 312.226562" fill="#ed1f30"/></g><g fill-opacity="1" fill="#320405"><g transform="translate(274.43997, 312.366676)"><g><path d="M 54.765625 0 L 45.78125 0 L 41.75 -26.6875 L 29.546875 -0.0625 L 27.390625 -0.0625 L 15.1875 -26.6875 L 11.15625 0 L 2.109375 0 L 8.53125 -40.875 L 17.40625 -40.875 L 28.4375 -15.828125 L 39.53125 -40.875 L 48.40625 -40.875 Z M 54.765625 0"/></g></g></g><g fill-opacity="1" fill="#320405"><g transform="translate(331.369224, 312.366676)"><g><path d="M 4.09375 -35.734375 L 4.09375 -43.671875 L 12.609375 -43.671875 L 12.609375 -35.734375 Z M 4.09375 0 L 4.09375 -31.53125 L 12.609375 -31.53125 L 12.609375 0 Z M 4.09375 0"/></g></g></g><g fill-opacity="1" fill="#320405"><g transform="translate(348.068479, 312.366676)"><g><path d="M 22.078125 -32.296875 C 25.648438 -32.296875 28.476562 -31.097656 30.5625 -28.703125 C 32.644531 -26.304688 33.6875 -23.101562 33.6875 -19.09375 L 33.6875 0 L 25.171875 0 L 25.171875 -17.75 C 25.171875 -22.457031 23.335938 -24.8125 19.671875 -24.8125 C 17.492188 -24.8125 15.769531 -24.070312 14.5 -22.59375 C 13.238281 -21.113281 12.609375 -19.109375 12.609375 -16.578125 L 12.609375 0 L 4.09375 0 L 4.09375 -31.53125 L 9.921875 -31.53125 L 11.625 -27.625 C 12.789062 -29.0625 14.285156 -30.195312 16.109375 -31.03125 C 17.941406 -31.875 19.929688 -32.296875 22.078125 -32.296875 Z M 22.078125 -32.296875"/></g></g></g><g fill-opacity="1" fill="#320405"><g transform="translate(385.495808, 312.366676)"><g><path d="M 4.09375 -35.734375 L 4.09375 -43.671875 L 12.609375 -43.671875 L 12.609375 -35.734375 Z M 4.09375 0 L 4.09375 -31.53125 L 12.609375 -31.53125 L 12.609375 0 Z M 4.09375 0"/></g></g></g><g fill-opacity="1" fill="#320405"><g transform="translate(402.195063, 312.366676)"><g/></g></g><g fill-opacity="1" fill="#320405"><g transform="translate(416.150032, 312.366676)"><g><path d="M 18.21875 0.8125 C 15.101562 0.8125 12.359375 0.25 9.984375 -0.875 C 7.609375 -2 5.75 -3.613281 4.40625 -5.71875 C 3.0625 -7.820312 2.390625 -10.332031 2.390625 -13.25 L 11.328125 -13.25 C 11.328125 -11.269531 12.015625 -9.800781 13.390625 -8.84375 C 14.773438 -7.894531 16.363281 -7.421875 18.15625 -7.421875 C 19.289062 -7.421875 20.351562 -7.601562 21.34375 -7.96875 C 22.332031 -8.34375 23.144531 -8.890625 23.78125 -9.609375 C 24.425781 -10.328125 24.75 -11.191406 24.75 -12.203125 C 24.75 -13.253906 24.378906 -14.082031 23.640625 -14.6875 C 22.898438 -15.289062 21.90625 -15.785156 20.65625 -16.171875 C 19.414062 -16.566406 18.054688 -16.9375 16.578125 -17.28125 C 15.066406 -17.632812 13.507812 -18.0625 11.90625 -18.5625 C 10.3125 -19.070312 8.832031 -19.742188 7.46875 -20.578125 C 6.113281 -21.421875 5.023438 -22.550781 4.203125 -23.96875 C 3.390625 -25.382812 2.984375 -27.1875 2.984375 -29.375 C 2.984375 -33.300781 4.316406 -36.320312 6.984375 -38.4375 C 9.648438 -40.5625 13.257812 -41.625 17.8125 -41.625 C 22.476562 -41.625 26.097656 -40.445312 28.671875 -38.09375 C 31.242188 -35.738281 32.53125 -32.539062 32.53125 -28.5 L 23.765625 -28.5 C 23.765625 -30.25 23.140625 -31.539062 21.890625 -32.375 C 20.648438 -33.21875 19.210938 -33.640625 17.578125 -33.640625 C 16.140625 -33.640625 14.816406 -33.328125 13.609375 -32.703125 C 12.398438 -32.078125 11.796875 -31.101562 11.796875 -29.78125 C 11.796875 -28.800781 12.15625 -28.03125 12.875 -27.46875 C 13.59375 -26.90625 14.546875 -26.4375 15.734375 -26.0625 C 16.921875 -25.695312 18.234375 -25.335938 19.671875 -24.984375 C 21.234375 -24.597656 22.832031 -24.140625 24.46875 -23.609375 C 26.101562 -23.085938 27.617188 -22.378906 29.015625 -21.484375 C 30.421875 -20.585938 31.5625 -19.398438 32.4375 -17.921875 C 33.3125 -16.441406 33.75 -14.578125 33.75 -12.328125 C 33.75 -9.359375 33.035156 -6.898438 31.609375 -4.953125 C 30.191406 -3.015625 28.316406 -1.566406 25.984375 -0.609375 C 23.648438 0.335938 21.0625 0.8125 18.21875 0.8125 Z M 18.21875 0.8125"/></g></g></g><g fill-opacity="1" fill="#320405"><g transform="translate(452.292811, 312.366676)"><g><path d="M 22.125 -32.296875 C 25.707031 -32.296875 28.53125 -31.109375 30.59375 -28.734375 C 32.65625 -26.359375 33.6875 -23.164062 33.6875 -19.15625 L 33.6875 0 L 25.171875 0 L 25.171875 -17.75 C 25.171875 -20.082031 24.738281 -21.84375 23.875 -23.03125 C 23.019531 -24.21875 21.617188 -24.8125 19.671875 -24.8125 C 17.578125 -24.8125 15.875 -24.082031 14.5625 -22.625 C 13.257812 -21.164062 12.609375 -19.148438 12.609375 -16.578125 L 12.609375 0 L 4.09375 0 L 4.09375 -42.921875 L 12.609375 -42.921875 L 12.609375 -28.609375 C 13.816406 -29.742188 15.238281 -30.640625 16.875 -31.296875 C 18.507812 -31.960938 20.257812 -32.296875 22.125 -32.296875 Z M 22.125 -32.296875"/></g></g></g><g fill-opacity="1" fill="#320405"><g transform="translate(489.72014, 312.366676)"><g><path d="M 19.09375 0.875 C 15.820312 0.875 12.898438 0.144531 10.328125 -1.3125 C 7.765625 -2.769531 5.742188 -4.753906 4.265625 -7.265625 C 2.785156 -9.773438 2.046875 -12.609375 2.046875 -15.765625 C 2.046875 -18.953125 2.785156 -21.800781 4.265625 -24.3125 C 5.742188 -26.820312 7.765625 -28.796875 10.328125 -30.234375 C 12.898438 -31.679688 15.820312 -32.40625 19.09375 -32.40625 C 22.320312 -32.40625 25.21875 -31.679688 27.78125 -30.234375 C 30.351562 -28.796875 32.378906 -26.820312 33.859375 -24.3125 C 35.335938 -21.800781 36.078125 -18.953125 36.078125 -15.765625 C 36.078125 -12.609375 35.335938 -9.773438 33.859375 -7.265625 C 32.378906 -4.753906 30.351562 -2.769531 27.78125 -1.3125 C 25.21875 0.144531 22.320312 0.875 19.09375 0.875 Z M 19.09375 -7.125 C 21.539062 -7.125 23.539062 -7.921875 25.09375 -9.515625 C 26.65625 -11.109375 27.4375 -13.191406 27.4375 -15.765625 C 27.4375 -18.335938 26.65625 -20.421875 25.09375 -22.015625 C 23.539062 -23.609375 21.539062 -24.40625 19.09375 -24.40625 C 16.601562 -24.40625 14.578125 -23.609375 13.015625 -22.015625 C 11.460938 -20.421875 10.6875 -18.335938 10.6875 -15.765625 C 10.6875 -13.191406 11.460938 -11.109375 13.015625 -9.515625 C 14.578125 -7.921875 16.601562 -7.125 19.09375 -7.125 Z M 19.09375 -7.125"/></g></g></g><g fill-opacity="1" fill="#320405"><g transform="translate(527.848135, 312.366676)"><g><path d="M 21.3125 -32.40625 C 24.46875 -32.40625 27.289062 -31.679688 29.78125 -30.234375 C 32.269531 -28.796875 34.234375 -26.820312 35.671875 -24.3125 C 37.117188 -21.800781 37.84375 -18.953125 37.84375 -15.765625 C 37.84375 -12.578125 37.117188 -9.722656 35.671875 -7.203125 C 34.234375 -4.691406 32.269531 -2.707031 29.78125 -1.25 C 27.289062 0.207031 24.46875 0.9375 21.3125 0.9375 C 19.675781 0.9375 18.117188 0.703125 16.640625 0.234375 C 15.160156 -0.234375 13.816406 -0.875 12.609375 -1.6875 L 12.609375 11.390625 L 4.09375 11.390625 L 4.09375 -31.53125 L 9.75 -31.53125 L 11.21875 -28.671875 C 12.539062 -29.835938 14.054688 -30.75 15.765625 -31.40625 C 17.472656 -32.070312 19.320312 -32.40625 21.3125 -32.40625 Z M 20.609375 -7.125 C 22.242188 -7.125 23.710938 -7.503906 25.015625 -8.265625 C 26.316406 -9.023438 27.335938 -10.054688 28.078125 -11.359375 C 28.816406 -12.660156 29.1875 -14.128906 29.1875 -15.765625 C 29.1875 -17.398438 28.816406 -18.867188 28.078125 -20.171875 C 27.335938 -21.472656 26.316406 -22.503906 25.015625 -23.265625 C 23.710938 -24.023438 22.242188 -24.40625 20.609375 -24.40625 C 18.929688 -24.40625 17.453125 -24.023438 16.171875 -23.265625 C 14.890625 -22.503906 13.878906 -21.472656 13.140625 -20.171875 C 12.398438 -18.867188 12.03125 -17.398438 12.03125 -15.765625 C 12.03125 -14.128906 12.398438 -12.660156 13.140625 -11.359375 C 13.878906 -10.054688 14.890625 -9.023438 16.171875 -8.265625 C 17.453125 -7.503906 18.929688 -7.125 20.609375 -7.125 Z M 20.609375 -7.125"/></g></g></g></svg>